# Blender v3.1.2 OBJ File: ''
# www.blender.org
mtllib untitled.mtl
o 立方体
v -15.000000 -90.000000 160.000000
v -15.000000 90.000000 160.000000
v -15.000000 -90.000000 -160.000000
v -15.000000 90.000000 -160.000000
v 15.000000 -77.234657 147.234665
v 15.000000 77.234657 147.234665
v 15.000000 -77.234657 -147.234665
v 15.000000 77.234657 -147.234665
v 15.000000 90.000000 -160.000000
v 15.000000 -90.000000 -160.000000
v 15.000000 -90.000000 160.000000
v 15.000000 90.000000 160.000000
v -4.738697 77.234657 -147.234665
v -4.738697 -77.234657 -147.234665
v -4.738697 -77.234657 147.234665
v -4.738697 77.234657 147.234665
v 1.149867 77.234657 -147.234665
v 1.149867 -77.234657 -147.234665
v 1.149867 -77.234657 147.234665
v 1.149867 77.234657 147.234665
v -1.799864 77.234657 -147.234665
v -1.799864 -77.234657 -147.234665
v -1.799864 -77.234657 147.234665
v -1.799864 77.234657 147.234665
v 0.934471 77.234657 -147.234665
v 0.934471 -77.234657 -147.234665
v 0.934471 -77.234657 147.234665
v 0.934471 77.234657 147.234665
v -4.326301 77.234657 -147.234665
v -4.326301 -77.234657 -147.234665
v -4.326301 -77.234657 147.234665
v -4.326301 77.234657 147.234665
v 0.362370 77.234657 -147.234665
v 0.362370 -77.234657 -147.234665
v 0.362370 -77.234657 147.234665
v 0.362370 77.234657 147.234665
vt 0.375000 0.000000
vt 0.625000 0.000000
vt 0.625000 0.250000
vt 0.375000 0.250000
vt 0.625000 0.500000
vt 0.375000 0.500000
vt 0.607270 0.740027
vt 0.392730 0.740027
vt 0.392730 0.740027
vt 0.607270 0.740027
vt 0.375000 0.750000
vt 0.625000 0.750000
vt 0.625000 1.000000
vt 0.375000 1.000000
vt 0.125000 0.500000
vt 0.125000 0.750000
vt 0.875000 0.500000
vt 0.875000 0.750000
vt 0.607270 0.509973
vt 0.392730 0.509973
vt 0.607270 0.509973
vt 0.607270 0.740027
vt 0.607270 0.509973
vt 0.392730 0.509973
vt 0.392730 0.740027
vt 0.392730 0.740027
vt 0.607270 0.740027
vt 0.392730 0.509973
vt 0.392730 0.509973
vt 0.392730 0.509973
vt 0.392730 0.740027
vt 0.607270 0.509973
vt 0.607270 0.509973
vt 0.607270 0.740027
vt 0.607270 0.740027
vt 0.607270 0.509973
vt 0.392730 0.740027
vt 0.392730 0.740027
vt 0.607270 0.740027
vt 0.392730 0.509973
vt 0.392730 0.509973
vt 0.607270 0.509973
vn -1.0000 0.0000 0.0000
vn 0.0000 0.0000 -1.0000
vn 0.0000 0.0000 1.0000
vn 0.0000 -1.0000 0.0000
vn 0.0000 1.0000 0.0000
vn 1.0000 0.0000 0.0000
usemtl 材质
s off
f 1/1/1 2/2/1 4/3/1 3/4/1
f 3/4/2 4/3/2 9/5/2 10/6/2
f 6/7/2 5/8/2 15/9/2 16/10/2
f 11/11/3 12/12/3 2/13/3 1/14/3
f 3/15/4 10/6/4 11/11/4 1/16/4
f 9/5/5 4/17/5 2/18/5 12/12/5
f 8/19/6 7/20/6 10/6/6 9/5/6
f 7/20/6 5/8/6 11/11/6 10/6/6
f 6/7/6 8/19/6 9/5/6 12/12/6
f 5/8/6 6/7/6 12/12/6 11/11/6
f 13/21/5 16/10/5 20/22/5 17/23/5
f 5/8/5 7/20/5 14/24/5 15/9/5
f 8/19/4 6/7/4 16/10/4 13/21/4
f 7/20/3 8/19/3 13/21/3 14/24/3
f 20/22/2 19/25/2 23/26/2 24/27/2
f 14/24/2 13/21/2 17/23/2 18/28/2
f 16/10/3 15/9/3 19/25/3 20/22/3
f 15/9/4 14/24/4 18/28/4 19/25/4
f 23/26/4 22/29/4 26/30/4 27/31/4
f 19/25/5 18/28/5 22/29/5 23/26/5
f 17/23/4 20/22/4 24/27/4 21/32/4
f 18/28/3 17/23/3 21/32/3 22/29/3
f 25/33/4 28/34/4 32/35/4 29/36/4
f 21/32/5 24/27/5 28/34/5 25/33/5
f 22/29/2 21/32/2 25/33/2 26/30/2
f 24/27/3 23/26/3 27/31/3 28/34/3
f 32/35/3 31/37/3 35/38/3 36/39/3
f 26/30/3 25/33/3 29/36/3 30/40/3
f 28/34/2 27/31/2 31/37/2 32/35/2
f 27/31/5 26/30/5 30/40/5 31/37/5
f 34/41/6 33/42/6 36/39/6 35/38/6
f 31/37/4 30/40/4 34/41/4 35/38/4
f 29/36/5 32/35/5 36/39/5 33/42/5
f 30/40/2 29/36/2 33/42/2 34/41/2
